<?xml version="1.0" encoding="UTF-8"?>
<svg xmlns="http://www.w3.org/2000/svg" xmlns:xlink="http://www.w3.org/1999/xlink" version="1.1" viewBox="0 0 1366 900">
  <defs>
    <style>
      .cls-1 {
        fill: #5780dc;
      }

      .cls-1, .cls-2, .cls-3, .cls-4, .cls-5, .cls-6, .cls-7, .cls-8, .cls-9, .cls-10, .cls-11, .cls-12, .cls-13, .cls-14, .cls-15, .cls-16, .cls-17, .cls-18, .cls-19, .cls-20, .cls-21, .cls-22, .cls-23, .cls-24, .cls-25, .cls-26, .cls-27, .cls-28, .cls-29, .cls-30, .cls-31, .cls-32, .cls-33, .cls-34, .cls-35, .cls-36, .cls-37, .cls-38, .cls-39, .cls-40, .cls-41, .cls-42, .cls-43, .cls-44, .cls-45, .cls-46, .cls-47, .cls-48, .cls-49, .cls-50, .cls-51, .cls-52, .cls-53, .cls-54, .cls-55, .cls-56, .cls-57, .cls-58, .cls-59, .cls-60, .cls-61, .cls-62, .cls-63, .cls-64, .cls-65, .cls-66, .cls-67, .cls-68 {
        stroke-width: 0px;
      }

      .cls-2 {
        fill: #6568cd;
      }

      .cls-3 {
        fill: #5c78d7;
      }

      .cls-4 {
        fill: #479bed;
      }

      .cls-5 {
        fill: #5e74d4;
      }

      .cls-6 {
        fill: #626dd0;
      }

      .cls-7 {
        fill: #4d90e6;
      }

      .cls-8 {
        fill: #4c93e8;
      }

      .cls-9 {
        fill: #587eda;
      }

      .cls-10 {
        fill: #5485df;
      }

      .cls-11 {
        fill: #5189e2;
      }

      .cls-12 {
        fill: #4b94e8;
      }

      .cls-13 {
        fill: #6071d3;
      }

      .cls-14 {
        fill: #4e8fe5;
      }

      .cls-15 {
        fill: #5b79d7;
      }

      .cls-16 {
        fill: #508ce4;
      }

      .cls-17 {
        fill: #6469ce;
      }

      .cls-18 {
        fill: #5f72d3;
      }

      .cls-19 {
        fill: #4a96ea;
      }

      .cls-20 {
        fill: #41a6f3;
      }

      .cls-21 {
        fill: #469ced;
      }

      .cls-22 {
        fill: #5c77d6;
      }

      .cls-23 {
        fill: #636cd0;
      }

      .cls-24 {
        fill: #4f8de4;
      }

      .cls-25 {
        fill: #41a5f3;
      }

      .cls-26 {
        fill: #5682dd;
      }

      .cls-27 {
        fill: #6070d2;
      }

      .cls-28 {
        fill: #44a0f0;
      }

      .cls-29 {
        fill: #3fa9f5;
      }

      .cls-30 {
        fill: #42a3f1;
      }

      .cls-31 {
        fill: #4997ea;
      }

      .cls-32 {
        fill: #5584de;
      }

      .cls-33 {
        fill: #4d91e7;
      }

      .cls-34 {
        fill: #459fef;
      }

      .cls-35 {
        fill: #40a7f4;
      }

      .cls-36 {
        fill: #5b7ad8;
      }

      .cls-37 {
        fill: #597dda;
      }

      .cls-38 {
        fill: #66c;
      }

      .cls-39 {
        fill: #616ed1;
      }

      .cls-40 {
        fill: #6567cd;
      }

      .cls-41 {
        fill: #518ae2;
      }

      .cls-42 {
        fill: #44a1f0;
      }

      .cls-43 {
        fill: #4e8ee5;
      }

      .cls-69 {
        mix-blend-mode: luminosity;
        opacity: .3;
      }

      .cls-44 {
        fill: #4a95e9;
      }

      .cls-45 {
        fill: #646ace;
      }

      .cls-46 {
        fill: #616fd1;
      }

      .cls-47 {
        fill: #5387e0;
      }

      .cls-48 {
        fill: #40a8f4;
      }

      .cls-49 {
        fill: #587fdb;
      }

      .cls-70 {
        isolation: isolate;
      }

      .cls-50 {
        fill: #508be3;
      }

      .cls-51 {
        fill: #459eee;
      }

      .cls-52 {
        fill: #42a4f2;
      }

      .cls-53 {
        fill: #43a2f1;
      }

      .cls-54 {
        fill: #5583dd;
      }

      .cls-55 {
        fill: #636bcf;
      }

      .cls-56 {
        fill: #469dee;
      }

      .cls-57 {
        fill: #5486df;
      }

      .cls-58 {
        fill: #489aec;
      }

      .cls-59 {
        fill: #5288e1;
      }

      .cls-60 {
        fill: #5a7bd9;
      }

      .cls-61 {
        fill: #5f73d4;
      }

      .cls-71 {
        mix-blend-mode: multiply;
        opacity: .9;
      }

      .cls-62 {
        fill: #5d76d6;
      }

      .cls-63 {
        fill: #597cd9;
      }

      .cls-64 {
        fill: #5d75d5;
      }

      .cls-65 {
        fill: #5781dc;
      }

      .cls-66 {
        fill: #4998eb;
      }

      .cls-67 {
        fill: #4899eb;
      }

      .cls-68 {
        fill: #4c92e7;
      }
    </style>
  </defs>
  <g class="cls-70">
    <g id="Layer_1" data-name="Layer 1">
      <g>
        <rect class="cls-38" x=".5" y="0" width="300.9" height="900.1"/>
        <rect class="cls-40" x="13" y="0" width="304" height="900.1"/>
        <rect class="cls-2" x="25.5" y="0" width="307.1" height="900.1"/>
        <rect class="cls-17" x="38.1" y="0" width="310.2" height="900.1"/>
        <rect class="cls-45" x="50.6" y="0" width="313.4" height="900.1"/>
        <rect class="cls-55" x="63.2" y="0" width="316.5" height="900.1"/>
        <rect class="cls-23" x="75.7" y="0" width="319.6" height="900.1"/>
        <rect class="cls-6" x="88.2" y="0" width="322.7" height="900.1"/>
        <rect class="cls-39" x="100.8" y="0" width="325.8" height="900.1"/>
        <rect class="cls-46" x="113.3" y="0" width="329" height="900.1"/>
        <rect class="cls-27" x="125.8" y="0" width="332.1" height="900.1"/>
        <rect class="cls-13" x="138.4" y="0" width="335.2" height="900.1"/>
        <rect class="cls-18" x="150.9" y="0" width="338.3" height="900.1"/>
        <rect class="cls-61" x="163.4" y="0" width="341.4" height="900.1"/>
        <rect class="cls-5" x="176" y="0" width="344.6" height="900.1"/>
        <rect class="cls-64" x="188.5" y="0" width="347.7" height="900.1"/>
        <rect class="cls-62" x="201.1" y="0" width="350.8" height="900.1"/>
        <rect class="cls-22" x="213.6" y="0" width="353.9" height="900.1"/>
        <rect class="cls-3" x="226.1" y="0" width="357" height="900.1"/>
        <rect class="cls-15" x="238.7" y="0" width="360.2" height="900.1"/>
        <rect class="cls-36" x="251.2" y="0" width="363.3" height="900.1"/>
        <rect class="cls-60" x="263.7" y="0" width="366.4" height="900.1"/>
        <rect class="cls-63" x="276.3" y="0" width="369.5" height="900.1"/>
        <rect class="cls-37" x="288.8" y="0" width="372.6" height="900.1"/>
        <rect class="cls-9" x="301.4" y="0" width="375.7" height="900.1"/>
        <rect class="cls-49" x="313.9" y="0" width="378.9" height="900.1"/>
        <rect class="cls-1" x="326.4" y="0" width="382" height="900.1"/>
        <rect class="cls-65" x="339" y="0" width="385.1" height="900.1"/>
        <rect class="cls-26" x="351.5" y="0" width="388.2" height="900.1"/>
        <rect class="cls-54" x="364" y="0" width="391.3" height="900.1"/>
        <rect class="cls-32" x="376.6" y="0" width="394.5" height="900.1"/>
        <rect class="cls-10" x="389.1" y="0" width="397.6" height="900.1"/>
        <rect class="cls-57" x="401.7" y="0" width="400.7" height="900.1"/>
        <rect class="cls-47" x="414.2" y="0" width="403.8" height="900.1"/>
        <rect class="cls-47" x="426.7" y="0" width="406.9" height="900.1"/>
        <rect class="cls-59" x="439.3" y="0" width="410.1" height="900.1"/>
        <rect class="cls-11" x="451.8" y="0" width="413.2" height="900.1"/>
        <rect class="cls-41" x="464.3" y="0" width="416.3" height="900.1"/>
        <rect class="cls-50" x="476.9" y="0" width="419.4" height="900.1"/>
        <rect class="cls-16" x="489.4" y="0" width="422.5" height="900.1"/>
        <rect class="cls-24" x="502" y="0" width="425.7" height="900.1"/>
        <rect class="cls-43" x="514.5" y="0" width="428.8" height="900.1"/>
        <rect class="cls-14" x="527" y="0" width="431.9" height="900.1"/>
        <rect class="cls-7" x="539.6" y="0" width="435" height="900.1"/>
        <rect class="cls-33" x="552.1" y="0" width="438.1" height="900.1"/>
        <rect class="cls-68" x="564.6" y="0" width="441.3" height="900.1"/>
        <rect class="cls-8" x="577.2" y="0" width="444.4" height="900.1"/>
        <rect class="cls-12" x="589.7" y="0" width="447.5" height="900.1"/>
        <rect class="cls-44" x="602.3" y="0" width="450.6" height="900.1"/>
        <rect class="cls-19" x="614.8" y="0" width="453.7" height="900.1"/>
        <rect class="cls-31" x="627.3" y="0" width="456.9" height="900.1"/>
        <rect class="cls-66" x="639.9" y="0" width="460" height="900.1"/>
        <rect class="cls-67" x="652.4" y="0" width="463.1" height="900.1"/>
        <rect class="cls-58" x="664.9" y="0" width="466.2" height="900.1"/>
        <rect class="cls-4" x="677.5" y="0" width="469.3" height="900.1"/>
        <rect class="cls-21" x="690" y="0" width="472.4" height="900.1"/>
        <rect class="cls-56" x="702.6" y="0" width="475.6" height="900.1"/>
        <rect class="cls-51" x="715.1" y="0" width="478.7" height="900.1"/>
        <rect class="cls-34" x="727.6" y="0" width="481.8" height="900.1"/>
        <rect class="cls-28" x="740.2" y="0" width="484.9" height="900.1"/>
        <rect class="cls-42" x="752.7" y="0" width="488" height="900.1"/>
        <rect class="cls-53" x="765.2" y="0" width="491.2" height="900.1"/>
        <rect class="cls-30" x="777.8" y="0" width="494.3" height="900.1"/>
        <rect class="cls-52" x="790.3" y="0" width="497.4" height="900.1"/>
        <rect class="cls-25" x="802.9" y="0" width="500.5" height="900.1"/>
        <rect class="cls-20" x="815.4" y="0" width="503.6" height="900.1"/>
        <rect class="cls-35" x="827.9" y="0" width="506.8" height="900.1"/>
        <rect class="cls-48" x="840.5" y="0" width="509.9" height="900.1"/>
        <rect class="cls-29" x="853" y="0" width="513" height="900.1"/>
      </g>
      <g>
        <image class="cls-69" width="1013" height="1008" transform="translate(174 -56)" xlink:href="Novolog_insulin_desktop_background_v0-1.png"/>
        <g>
          <image class="cls-71" width="730" height="727" transform="translate(317 87)" xlink:href="Novolog_insulin_desktop_background_v0-2.png"/>
          <image width="1526" height="1016" transform="translate(82.2 50) scale(.8)" xlink:href="novolog_insulin_v1.png"/>
        </g>
      </g>
    </g>
  </g>
</svg>